<svg xmlns="http://www.w3.org/2000/svg" xmlns:xlink="http://www.w3.org/1999/xlink" width="500" zoomAndPan="magnify" viewBox="0 0 375 374.999991" height="500" preserveAspectRatio="xMidYMid meet" version="1.0"><defs><g/><clipPath id="ac780e53ff"><path d="M 37.5 162.199219 L 141 162.199219 L 141 312 L 37.5 312 Z M 37.5 162.199219 " clip-rule="nonzero"/></clipPath></defs><path fill="#000000" d="M 91.476562 245.492188 C 91.476562 245.789062 91.421875 246.074219 91.308594 246.347656 C 91.195312 246.621094 91.035156 246.859375 90.824219 247.070312 C 90.617188 247.28125 90.375 247.441406 90.101562 247.554688 C 89.828125 247.667969 89.546875 247.722656 89.25 247.722656 C 88.953125 247.722656 88.671875 247.667969 88.398438 247.554688 C 88.125 247.441406 87.882812 247.28125 87.675781 247.070312 C 87.464844 246.859375 87.304688 246.621094 87.191406 246.347656 C 87.078125 246.074219 87.023438 245.789062 87.023438 245.492188 C 87.023438 245.199219 87.078125 244.914062 87.191406 244.640625 C 87.304688 244.367188 87.464844 244.125 87.675781 243.917969 C 87.882812 243.707031 88.125 243.546875 88.398438 243.433594 C 88.671875 243.320312 88.953125 243.265625 89.25 243.265625 C 89.546875 243.265625 89.828125 243.320312 90.101562 243.433594 C 90.375 243.546875 90.617188 243.707031 90.824219 243.917969 C 91.035156 244.125 91.195312 244.367188 91.308594 244.640625 C 91.421875 244.914062 91.476562 245.199219 91.476562 245.492188 Z M 91.476562 245.492188 " fill-opacity="1" fill-rule="nonzero"/><path fill="#000000" d="M 91.476562 254.304688 C 91.476562 254.601562 91.421875 254.886719 91.308594 255.15625 C 91.195312 255.429688 91.035156 255.671875 90.824219 255.882812 C 90.617188 256.089844 90.375 256.25 90.101562 256.363281 C 89.828125 256.476562 89.546875 256.535156 89.25 256.535156 C 88.953125 256.535156 88.671875 256.476562 88.398438 256.363281 C 88.125 256.25 87.882812 256.089844 87.675781 255.882812 C 87.464844 255.671875 87.304688 255.429688 87.191406 255.15625 C 87.078125 254.886719 87.023438 254.601562 87.023438 254.304688 C 87.023438 254.007812 87.078125 253.726562 87.191406 253.453125 C 87.304688 253.179688 87.464844 252.9375 87.675781 252.726562 C 87.882812 252.519531 88.125 252.359375 88.398438 252.246094 C 88.671875 252.132812 88.953125 252.074219 89.25 252.074219 C 89.546875 252.074219 89.828125 252.132812 90.101562 252.246094 C 90.375 252.359375 90.617188 252.519531 90.824219 252.726562 C 91.035156 252.9375 91.195312 253.179688 91.308594 253.453125 C 91.421875 253.726562 91.476562 254.007812 91.476562 254.304688 Z M 91.476562 254.304688 " fill-opacity="1" fill-rule="nonzero"/><g clip-path="url(#ac780e53ff)"><path fill="#000000" d="M 104.871094 231.957031 L 114.492188 223.164062 L 119.105469 218.972656 C 127.445312 211.445312 131.578125 201.242188 131.738281 187.738281 L 131.738281 176.394531 L 138.71875 176.394531 C 139.019531 176.402344 139.308594 176.351562 139.589844 176.242188 C 139.867188 176.132812 140.113281 175.972656 140.328125 175.761719 C 140.542969 175.550781 140.710938 175.308594 140.824219 175.03125 C 140.941406 174.753906 141 174.46875 141 174.167969 L 141 164.515625 C 141 164.222656 140.945312 163.9375 140.832031 163.664062 C 140.71875 163.390625 140.554688 163.148438 140.347656 162.941406 C 140.140625 162.730469 139.898438 162.570312 139.625 162.457031 C 139.351562 162.34375 139.070312 162.289062 138.773438 162.289062 L 39.761719 162.289062 C 39.46875 162.289062 39.183594 162.34375 38.910156 162.457031 C 38.636719 162.570312 38.398438 162.730469 38.1875 162.941406 C 37.980469 163.148438 37.816406 163.390625 37.707031 163.664062 C 37.59375 163.9375 37.535156 164.222656 37.535156 164.515625 L 37.535156 174.167969 C 37.535156 174.460938 37.59375 174.746094 37.707031 175.019531 C 37.816406 175.292969 37.980469 175.535156 38.1875 175.742188 C 38.398438 175.953125 38.636719 176.113281 38.910156 176.226562 C 39.183594 176.339844 39.46875 176.394531 39.761719 176.394531 L 46.746094 176.394531 L 46.746094 187.703125 C 46.90625 201.171875 51.054688 211.371094 59.394531 218.882812 L 64.738281 223.769531 L 73.644531 231.902344 C 74.582031 232.609375 75.332031 233.476562 75.894531 234.503906 C 76.457031 235.535156 76.78125 236.636719 76.871094 237.804688 C 76.753906 239.015625 76.398438 240.144531 75.796875 241.199219 C 75.199219 242.253906 74.410156 243.136719 73.429688 243.851562 L 59.359375 256.730469 C 51.019531 264.238281 46.886719 274.441406 46.710938 287.945312 L 46.710938 297.789062 L 39.761719 297.789062 C 39.460938 297.789062 39.175781 297.847656 38.898438 297.964844 C 38.621094 298.082031 38.378906 298.246094 38.167969 298.460938 C 37.960938 298.675781 37.800781 298.921875 37.691406 299.203125 C 37.578125 299.484375 37.527344 299.773438 37.535156 300.074219 L 37.535156 309.722656 C 37.535156 310.019531 37.59375 310.300781 37.707031 310.574219 C 37.816406 310.847656 37.980469 311.089844 38.1875 311.300781 C 38.398438 311.507812 38.636719 311.667969 38.910156 311.78125 C 39.183594 311.894531 39.46875 311.953125 39.761719 311.953125 L 138.71875 311.953125 C 139.023438 311.960938 139.316406 311.90625 139.601562 311.792969 C 139.882812 311.679688 140.132812 311.515625 140.347656 311.300781 C 140.5625 311.082031 140.726562 310.835938 140.839844 310.550781 C 140.953125 310.269531 141.007812 309.972656 141 309.667969 L 141 300.074219 C 141 299.777344 140.945312 299.492188 140.832031 299.21875 C 140.71875 298.945312 140.554688 298.707031 140.347656 298.496094 C 140.140625 298.289062 139.898438 298.125 139.625 298.011719 C 139.351562 297.898438 139.070312 297.84375 138.773438 297.84375 L 131.738281 297.84375 L 131.738281 287.910156 C 131.578125 274.441406 127.445312 264.238281 119.105469 256.730469 L 105.015625 243.835938 C 104.046875 243.125 103.265625 242.25 102.671875 241.203125 C 102.078125 240.160156 101.726562 239.039062 101.613281 237.84375 C 101.710938 236.671875 102.046875 235.574219 102.613281 234.550781 C 103.183594 233.523438 103.933594 232.660156 104.871094 231.957031 Z M 97.160156 237.859375 C 97.257812 239.6875 97.730469 241.414062 98.582031 243.035156 C 99.429688 244.660156 100.578125 246.03125 102.023438 247.152344 L 116.058594 260.03125 C 123.542969 266.773438 127.085938 275.65625 127.230469 287.945312 L 127.230469 297.789062 L 51.199219 297.789062 L 51.199219 287.960938 C 51.359375 275.65625 54.90625 266.773438 62.386719 260.03125 L 76.460938 247.171875 C 77.914062 246.039062 79.070312 244.65625 79.925781 243.023438 C 80.78125 241.386719 81.257812 239.648438 81.359375 237.804688 C 81.265625 236.019531 80.808594 234.332031 79.980469 232.75 C 79.152344 231.164062 78.03125 229.824219 76.621094 228.726562 L 67.710938 220.59375 L 62.367188 215.707031 C 54.90625 208.964844 51.359375 200.082031 51.199219 187.792969 L 51.199219 176.394531 L 127.28125 176.394531 L 127.28125 187.703125 C 127.140625 200.011719 123.59375 208.894531 116.113281 215.636719 C 114.5625 217.027344 113.03125 218.4375 111.480469 219.863281 L 101.808594 228.726562 C 100.417969 229.847656 99.316406 231.203125 98.503906 232.792969 C 97.695312 234.386719 97.246094 236.074219 97.160156 237.859375 Z M 97.160156 237.859375 " fill-opacity="1" fill-rule="nonzero"/></g><path fill="#000000" d="M 118.570312 205.539062 C 118.816406 205.113281 118.910156 204.65625 118.851562 204.167969 C 118.792969 203.679688 118.59375 203.253906 118.25 202.902344 C 117.917969 202.535156 117.503906 202.3125 117.019531 202.230469 C 116.53125 202.148438 116.070312 202.222656 115.632812 202.453125 C 106.851562 206.933594 103.554688 208.609375 89.925781 204.238281 C 87.761719 203.53125 85.550781 203.039062 83.292969 202.757812 C 81.035156 202.476562 78.773438 202.410156 76.5 202.5625 C 74.230469 202.714844 71.996094 203.082031 69.792969 203.664062 C 67.59375 204.246094 65.46875 205.03125 63.417969 206.023438 C 63.269531 206.09375 63.128906 206.179688 62.996094 206.285156 C 62.863281 206.386719 62.746094 206.503906 62.640625 206.632812 C 62.535156 206.765625 62.445312 206.902344 62.375 207.054688 C 62.300781 207.203125 62.242188 207.359375 62.203125 207.523438 C 62.167969 207.6875 62.148438 207.851562 62.144531 208.019531 C 62.144531 208.1875 62.160156 208.351562 62.195312 208.515625 C 62.230469 208.679688 62.285156 208.835938 62.355469 208.988281 C 62.429688 209.136719 62.515625 209.277344 62.617188 209.410156 C 63.472656 210.425781 82.855469 229.03125 83.03125 229.03125 C 84.507812 230.726562 85.339844 232.695312 85.527344 234.933594 C 85.585938 235.390625 85.726562 235.816406 85.949219 236.214844 C 86.167969 236.617188 86.457031 236.960938 86.8125 237.25 C 87.167969 237.539062 87.5625 237.75 88 237.886719 C 88.4375 238.023438 88.882812 238.074219 89.339844 238.039062 C 89.773438 238.082031 90.195312 238.039062 90.613281 237.910156 C 91.027344 237.78125 91.402344 237.578125 91.738281 237.300781 C 92.070312 237.023438 92.339844 236.691406 92.542969 236.304688 C 92.742188 235.921875 92.863281 235.511719 92.902344 235.078125 C 93.074219 233.652344 93.496094 232.308594 94.171875 231.042969 C 94.851562 229.777344 95.730469 228.679688 96.820312 227.746094 C 97.125 227.480469 98.371094 226.285156 100.0625 224.660156 C 104.230469 220.664062 111.179688 213.960938 113.085938 212.28125 C 115.277344 210.332031 117.105469 208.085938 118.570312 205.539062 Z M 118.570312 205.539062 " fill-opacity="1" fill-rule="nonzero"/><path fill="#000000" d="M 58.574219 290.65625 C 58.566406 290.957031 58.621094 291.25 58.730469 291.535156 C 58.84375 291.816406 59.007812 292.0625 59.21875 292.28125 C 59.433594 292.496094 59.679688 292.660156 59.960938 292.773438 C 60.242188 292.886719 60.535156 292.941406 60.835938 292.9375 L 117.679688 292.9375 C 117.976562 292.9375 118.261719 292.882812 118.535156 292.769531 C 118.804688 292.65625 119.046875 292.496094 119.257812 292.285156 C 119.464844 292.078125 119.625 291.835938 119.738281 291.5625 C 119.851562 291.289062 119.90625 291.003906 119.90625 290.707031 C 119.882812 289.71875 119.8125 288.730469 119.695312 287.75 C 119.574219 286.765625 119.40625 285.789062 119.195312 284.824219 C 118.980469 283.855469 118.722656 282.902344 118.417969 281.960938 C 118.109375 281.015625 117.761719 280.09375 117.363281 279.183594 C 116.96875 278.277344 116.53125 277.390625 116.050781 276.523438 C 115.570312 275.65625 115.050781 274.816406 114.488281 274.003906 C 113.925781 273.1875 113.324219 272.402344 112.6875 271.644531 C 112.050781 270.886719 111.378906 270.164062 110.667969 269.46875 C 109.960938 268.777344 109.222656 268.121094 108.449219 267.503906 C 107.679688 266.882812 106.878906 266.300781 106.050781 265.757812 C 105.226562 265.214844 104.375 264.714844 103.496094 264.253906 C 102.621094 263.792969 101.726562 263.375 100.808594 263.003906 C 99.894531 262.628906 98.960938 262.300781 98.011719 262.015625 C 97.066406 261.734375 96.105469 261.496094 95.136719 261.308594 C 94.164062 261.117188 93.1875 260.972656 92.203125 260.878906 C 91.21875 260.78125 90.230469 260.734375 89.242188 260.734375 C 88.25 260.734375 87.265625 260.78125 86.28125 260.878906 C 85.296875 260.972656 84.316406 261.117188 83.347656 261.308594 C 82.375 261.496094 81.417969 261.734375 80.46875 262.015625 C 79.519531 262.300781 78.589844 262.628906 77.671875 263.003906 C 76.757812 263.375 75.859375 263.792969 74.984375 264.253906 C 74.109375 264.714844 73.257812 265.214844 72.429688 265.757812 C 71.601562 266.300781 70.804688 266.882812 70.03125 267.503906 C 69.261719 268.121094 68.519531 268.777344 67.8125 269.46875 C 67.105469 270.164062 66.433594 270.886719 65.792969 271.644531 C 65.15625 272.402344 64.554688 273.1875 63.996094 274.003906 C 63.433594 274.816406 62.910156 275.65625 62.429688 276.523438 C 61.949219 277.390625 61.511719 278.277344 61.117188 279.183594 C 60.722656 280.09375 60.371094 281.015625 60.066406 281.960938 C 59.761719 282.902344 59.5 283.855469 59.289062 284.824219 C 59.074219 285.789062 58.90625 286.765625 58.789062 287.75 C 58.667969 288.730469 58.597656 289.71875 58.574219 290.707031 Z M 58.574219 290.65625 " fill-opacity="1" fill-rule="nonzero"/><g fill="#000000" fill-opacity="1"><g transform="translate(56.943754, 139.599966)"><g><path d="M 65.3125 0 L 50.328125 0 L 48.34375 -17.109375 L 20.109375 -17.109375 L 11.015625 0 L -4.828125 0 L 36.359375 -74.25 L 55.25 -74.25 Z M 42.296875 -58.75 L 26.71875 -29.453125 L 46.921875 -29.453125 L 43.578125 -58.75 Z M 42.296875 -58.75 "/></g></g></g><g fill="#000000" fill-opacity="1"><g transform="translate(129.301595, 139.599966)"><g><path d="M 3.859375 0 L 13.40625 -44.890625 L 5.484375 -44.890625 L 7.875 -56.0625 L 16.15625 -56.0625 L 16.09375 -58.34375 C 16.09375 -60.613281 16.28125 -62.5625 16.65625 -64.1875 C 17.332031 -67.300781 18.6875 -70.007812 20.71875 -72.3125 C 22.75 -74.613281 25.378906 -76.398438 28.609375 -77.671875 C 31.847656 -78.941406 35.550781 -79.578125 39.71875 -79.578125 C 42.925781 -79.578125 45.695312 -79.203125 48.03125 -78.453125 C 50.375 -77.710938 52.171875 -76.679688 53.421875 -75.359375 L 46.921875 -66.015625 L 45.8125 -65.8125 C 44.28125 -67.300781 42.078125 -68.046875 39.203125 -68.046875 C 36.660156 -68.046875 34.617188 -67.425781 33.078125 -66.1875 C 31.546875 -64.957031 30.554688 -63.273438 30.109375 -61.140625 C 29.878906 -59.992188 29.765625 -58.894531 29.765625 -57.84375 C 29.765625 -57.46875 29.796875 -56.875 29.859375 -56.0625 L 45.859375 -56.0625 L 43.46875 -44.890625 L 27.46875 -44.890625 L 17.921875 0 Z M 3.859375 0 "/></g></g></g><g fill="#000000" fill-opacity="1"><g transform="translate(169.720431, 139.599966)"><g><path d="M 27.875 -44.890625 L 22.453125 -19.296875 C 22.242188 -18.347656 22.140625 -17.46875 22.140625 -16.65625 C 22.140625 -14.925781 22.601562 -13.601562 23.53125 -12.6875 C 24.46875 -11.78125 25.800781 -11.328125 27.53125 -11.328125 C 28.75 -11.328125 29.878906 -11.492188 30.921875 -11.828125 C 31.972656 -12.171875 33.039062 -12.679688 34.125 -13.359375 L 35.1875 -13.359375 L 37.125 -2.953125 C 35.363281 -1.628906 33.457031 -0.628906 31.40625 0.046875 C 29.363281 0.722656 26.695312 1.0625 23.40625 1.0625 C 20.332031 1.0625 17.625 0.515625 15.28125 -0.578125 C 12.945312 -1.679688 11.117188 -3.347656 9.796875 -5.578125 C 8.484375 -7.816406 7.828125 -10.5625 7.828125 -13.8125 C 7.828125 -15.707031 8.046875 -17.707031 8.484375 -19.8125 L 13.8125 -44.890625 L 5.28125 -44.890625 L 7.671875 -56.0625 L 16.203125 -56.0625 L 18.53125 -66.984375 L 33.0625 -69.265625 L 30.265625 -56.0625 L 46.15625 -56.0625 L 43.78125 -44.890625 Z M 27.875 -44.890625 "/></g></g></g><g fill="#000000" fill-opacity="1"><g transform="translate(213.23669, 139.599966)"><g><path d="M 56.984375 -39.109375 C 55.691406 -32.878906 52.300781 -28.410156 46.8125 -25.703125 C 41.332031 -22.992188 34.632812 -21.640625 26.71875 -21.640625 C 23.90625 -21.640625 21.296875 -21.753906 18.890625 -21.984375 C 19.023438 -18.265625 20.003906 -15.484375 21.828125 -13.640625 C 23.660156 -11.796875 26.238281 -10.875 29.5625 -10.875 C 32.632812 -10.875 35.1875 -11.484375 37.21875 -12.703125 C 39.25 -13.921875 41.113281 -15.78125 42.8125 -18.28125 L 43.875 -18.28125 L 52.921875 -12.140625 C 51.191406 -9.359375 49.257812 -7.019531 47.125 -5.125 C 44.988281 -3.226562 42.285156 -1.722656 39.015625 -0.609375 C 35.753906 0.503906 31.753906 1.0625 27.015625 1.0625 C 22.710938 1.0625 18.878906 0.140625 15.515625 -1.703125 C 12.148438 -3.546875 9.507812 -6.21875 7.59375 -9.71875 C 5.675781 -13.226562 4.71875 -17.421875 4.71875 -22.296875 C 4.71875 -25.066406 5.039062 -27.992188 5.6875 -31.078125 C 6.84375 -36.492188 8.96875 -41.15625 12.0625 -45.0625 C 15.15625 -48.976562 18.894531 -51.957031 23.28125 -54 C 27.664062 -56.050781 32.363281 -57.078125 37.375 -57.078125 C 41.644531 -57.078125 45.273438 -56.425781 48.265625 -55.125 C 51.265625 -53.820312 53.523438 -52.046875 55.046875 -49.796875 C 56.566406 -47.546875 57.328125 -45.046875 57.328125 -42.296875 C 57.328125 -41.148438 57.210938 -40.085938 56.984375 -39.109375 Z M 36.0625 -46.15625 C 33.894531 -46.15625 31.785156 -45.664062 29.734375 -44.6875 C 27.679688 -43.707031 25.828125 -42.226562 24.171875 -40.25 C 22.515625 -38.269531 21.242188 -35.804688 20.359375 -32.859375 C 22.972656 -32.648438 25.445312 -32.546875 27.78125 -32.546875 C 32.382812 -32.546875 36.046875 -33.117188 38.765625 -34.265625 C 41.492188 -35.421875 43.164062 -37.457031 43.78125 -40.375 C 43.84375 -40.78125 43.875 -41.101562 43.875 -41.34375 C 43.875 -42.757812 43.195312 -43.914062 41.84375 -44.8125 C 40.488281 -45.707031 38.5625 -46.15625 36.0625 -46.15625 Z M 36.0625 -46.15625 "/></g></g></g><g fill="#000000" fill-opacity="1"><g transform="translate(274.11882, 139.599966)"><g><path d="M 2.140625 0 L 14.015625 -56.015625 L 27.671875 -56.015625 L 25.90625 -47.6875 L 26.921875 -47.484375 C 28.878906 -50.660156 31.066406 -52.957031 33.484375 -54.375 C 35.910156 -55.800781 38.816406 -56.515625 42.203125 -56.515625 C 43.722656 -56.515625 45.082031 -56.378906 46.28125 -56.109375 C 47.488281 -55.835938 48.429688 -55.429688 49.109375 -54.890625 L 44.53125 -42.609375 L 43.421875 -42.40625 C 41.628906 -43.21875 39.664062 -43.625 37.53125 -43.625 C 29.46875 -43.625 24.203125 -37.816406 21.734375 -26.203125 L 16.203125 0 Z M 2.140625 0 "/></g></g></g><g fill="#000000" fill-opacity="1"><g transform="translate(129.374996, 282.149981)"><g><path d="M 25.734375 0.984375 C 21.359375 0.984375 17.546875 0.179688 14.296875 -1.421875 C 11.046875 -3.035156 8.535156 -5.390625 6.765625 -8.484375 C 5.003906 -11.578125 4.125 -15.3125 4.125 -19.6875 C 4.125 -22.25 4.421875 -24.921875 5.015625 -27.703125 C 6.140625 -32.890625 8.015625 -37.359375 10.640625 -41.109375 C 13.265625 -44.859375 16.582031 -47.722656 20.59375 -49.703125 C 24.613281 -51.691406 29.203125 -52.6875 34.359375 -52.6875 C 38.734375 -52.6875 42.546875 -51.859375 45.796875 -50.203125 C 49.046875 -48.546875 51.550781 -46.144531 53.3125 -43 C 55.082031 -39.863281 55.96875 -36.125 55.96875 -31.78125 C 55.96875 -29.375 55.6875 -26.78125 55.125 -24 C 54 -18.8125 52.113281 -14.34375 49.46875 -10.59375 C 46.832031 -6.84375 43.503906 -3.972656 39.484375 -1.984375 C 35.472656 -0.00390625 30.890625 0.984375 25.734375 0.984375 Z M 26.953125 -10.03125 C 30.734375 -10.03125 33.921875 -11.347656 36.515625 -13.984375 C 39.109375 -16.628906 40.96875 -20.578125 42.09375 -25.828125 C 42.5625 -28.046875 42.796875 -29.984375 42.796875 -31.640625 C 42.796875 -35.046875 41.953125 -37.566406 40.265625 -39.203125 C 38.578125 -40.847656 36.203125 -41.671875 33.140625 -41.671875 C 29.359375 -41.671875 26.171875 -40.347656 23.578125 -37.703125 C 20.984375 -35.066406 19.125 -31.109375 18 -25.828125 C 17.53125 -23.671875 17.296875 -21.75 17.296875 -20.0625 C 17.296875 -16.65625 18.144531 -14.128906 19.84375 -12.484375 C 21.550781 -10.847656 23.921875 -10.03125 26.953125 -10.03125 Z M 26.953125 -10.03125 "/></g></g><g transform="translate(189.468742, 282.149981)"><g><path d="M 18.375 0.984375 C 15.4375 0.984375 12.941406 0.367188 10.890625 -0.859375 C 8.847656 -2.097656 7.300781 -3.828125 6.25 -6.046875 C 5.207031 -8.265625 4.6875 -10.828125 4.6875 -13.734375 C 4.6875 -15.546875 4.90625 -17.515625 5.34375 -19.640625 L 12.140625 -51.703125 L 25.125 -51.703125 L 18.234375 -19.078125 C 18.046875 -18.140625 17.953125 -17.265625 17.953125 -16.453125 C 17.953125 -14.421875 18.546875 -12.832031 19.734375 -11.6875 C 20.921875 -10.550781 22.65625 -9.984375 24.9375 -9.984375 C 32.3125 -9.984375 37.046875 -14.875 39.140625 -24.65625 L 44.859375 -51.703125 L 57.84375 -51.703125 L 46.875 0 L 34.40625 0 L 36 -7.59375 L 35.109375 -7.828125 C 33.046875 -4.828125 30.722656 -2.609375 28.140625 -1.171875 C 25.566406 0.265625 22.3125 0.984375 18.375 0.984375 Z M 18.375 0.984375 "/></g></g><g transform="translate(249.281238, 282.149981)"><g><path d="M 1.96875 0 L 12.9375 -51.703125 L 25.546875 -51.703125 L 23.90625 -44.015625 L 24.84375 -43.828125 C 26.65625 -46.765625 28.675781 -48.890625 30.90625 -50.203125 C 33.144531 -51.515625 35.828125 -52.171875 38.953125 -52.171875 C 40.359375 -52.171875 41.613281 -52.046875 42.71875 -51.796875 C 43.832031 -51.546875 44.703125 -51.171875 45.328125 -50.671875 L 41.109375 -39.328125 L 40.078125 -39.140625 C 38.421875 -39.890625 36.609375 -40.265625 34.640625 -40.265625 C 27.203125 -40.265625 22.34375 -34.90625 20.0625 -24.1875 L 14.953125 0 Z M 1.96875 0 "/></g></g><g transform="translate(289.828111, 282.149981)"><g><path d="M 18.796875 0.984375 C 15.703125 0.984375 12.8125 0.546875 10.125 -0.328125 C 7.4375 -1.203125 5.140625 -2.394531 3.234375 -3.90625 C 1.328125 -5.425781 -0.078125 -7.125 -0.984375 -9 L 7.546875 -16.453125 L 8.53125 -16.453125 C 9.78125 -14.140625 11.453125 -12.40625 13.546875 -11.25 C 15.640625 -10.09375 18.0625 -9.515625 20.8125 -9.515625 C 23.6875 -9.515625 25.890625 -10.082031 27.421875 -11.21875 C 28.953125 -12.363281 29.71875 -13.984375 29.71875 -16.078125 C 29.71875 -17.265625 29.285156 -18.28125 28.421875 -19.125 C 27.566406 -19.96875 26.140625 -20.671875 24.140625 -21.234375 L 17.671875 -23.0625 C 14.453125 -24 11.859375 -25.5 9.890625 -27.5625 C 7.921875 -29.625 6.9375 -32.3125 6.9375 -35.625 C 6.9375 -36.8125 7.078125 -38.109375 7.359375 -39.515625 C 8.234375 -43.671875 10.53125 -46.90625 14.25 -49.21875 C 17.96875 -51.53125 22.90625 -52.6875 29.0625 -52.6875 C 33.375 -52.6875 37.019531 -51.972656 40 -50.546875 C 42.988281 -49.128906 45.25 -47.265625 46.78125 -44.953125 L 38.625 -37.78125 L 37.6875 -37.78125 C 36.59375 -39.40625 35.222656 -40.59375 33.578125 -41.34375 C 31.941406 -42.09375 30.015625 -42.46875 27.796875 -42.46875 C 25.140625 -42.46875 23.109375 -42.097656 21.703125 -41.359375 C 20.296875 -40.628906 19.4375 -39.5 19.125 -37.96875 C 19.0625 -37.59375 19.03125 -37.3125 19.03125 -37.125 C 19.03125 -36.03125 19.515625 -35.078125 20.484375 -34.265625 C 21.453125 -33.453125 22.828125 -32.8125 24.609375 -32.34375 L 30.515625 -30.796875 C 38.515625 -28.734375 42.515625 -24.515625 42.515625 -18.140625 C 42.515625 -16.796875 42.359375 -15.4375 42.046875 -14.0625 C 40.921875 -9.03125 38.515625 -5.265625 34.828125 -2.765625 C 31.140625 -0.265625 25.796875 0.984375 18.796875 0.984375 Z M 18.796875 0.984375 "/></g></g></g></svg>